<svg xmlns="http://www.w3.org/2000/svg" xmlns:svg="http://www.w3.org/2000/svg" id="svg2" width="100" height="100" version="1.1"><metadata id="metadata7"/><g id="layer1" transform="translate(0,-952.36218)"><path id="rect2985" d="M 16,6 C 11.619891,6 8,9.61989 8,14 l 0,70 c 0,4.3801 3.619891,8 8,8 l 70,0 c 4.380109,0 8,-3.6199 8,-8 L 94,14 C 94,9.61989 90.380109,6 86,6 L 16,6 z m -2,18.0625 74,0 L 88,84 c 0,1.1599 -0.840108,2 -2,2 l -70,0 c -1.159892,0 -2,-0.8401 -2,-2 l 0,-59.9375 z" transform="translate(0,952.36218)" style="font-size:medium;font-style:normal;font-variant:normal;font-weight:400;font-stretch:normal;text-indent:0;text-align:start;text-decoration:none;line-height:normal;letter-spacing:normal;word-spacing:normal;text-transform:none;direction:ltr;block-progression:tb;writing-mode:lr-tb;text-anchor:start;baseline-shift:baseline;color:#000;fill:#000;fill-opacity:1;stroke:none;stroke-width:6;marker:none;visibility:visible;display:inline;overflow:visible;enable-background:accumulate;font-family:Sans;-inkscape-font-specification:Sans"/></g></svg>