<svg xmlns="http://www.w3.org/2000/svg" xmlns:svg="http://www.w3.org/2000/svg" id="svg2" width="100" height="100" version="1.1"><metadata id="metadata7"/><path id="path4167" d="m 12.621094,11.214844 c -2.50712,0 -4.6540874,0.894314 -6.4394534,2.679687 -1.7853658,1.785373 -2.6777344,3.932333 -2.6777344,6.439453 v 69.28711 c -10e-7,2.50712 0.8923686,4.652134 2.6777344,6.4375 1.785366,1.785366 3.9323334,2.677734 6.4394534,2.677734 h 76.580078 c 2.507119,0 4.65408,-0.892368 6.439453,-2.677734 1.785372,-1.785366 2.677734,-3.93038 2.677734,-6.4375 v -69.28711 c 0,-2.50712 -0.892362,-4.65408 -2.677734,-6.439453 -1.785373,-1.785373 -3.932334,-2.679687 -6.439453,-2.679687 z M 15,32 H 51 86 V 53 H 15 Z m 0,33 h 71 l 0.06445,20.664062 c 0.0015,0.493832 -0.180144,0.922338 -0.541015,1.283204 -0.360873,0.360866 -0.787426,0.541015 -1.28125,0.541015 L 50.910156,87.443359 H 16.855469 c -0.493834,0 -0.922337,-0.180149 -1.283203,-0.541015 -0.360866,-0.360866 -0.540378,-0.787416 -0.541016,-1.28125 z" style="stroke:none;stroke-opacity:1"/></svg>