<svg xmlns="http://www.w3.org/2000/svg" xmlns:svg="http://www.w3.org/2000/svg" id="svg2" width="100" height="100" version="1.1"><metadata id="metadata7"/><g id="layer3"><path style="color:#000;font-style:normal;font-variant:normal;font-weight:400;font-stretch:normal;font-size:medium;line-height:normal;font-family:sans-serif;font-variant-ligatures:normal;font-variant-position:normal;font-variant-caps:normal;font-variant-numeric:normal;font-variant-alternates:normal;font-feature-settings:normal;text-indent:0;text-align:start;text-decoration:none;text-decoration-line:none;text-decoration-style:solid;text-decoration-color:#000;letter-spacing:normal;word-spacing:normal;text-transform:none;writing-mode:lr-tb;direction:ltr;text-orientation:mixed;dominant-baseline:auto;baseline-shift:baseline;text-anchor:start;white-space:normal;shape-padding:0;clip-rule:nonzero;display:inline;overflow:visible;visibility:visible;opacity:1;isolation:auto;mix-blend-mode:normal;color-interpolation:sRGB;color-interpolation-filters:linearRGB;solid-color:#000;solid-opacity:1;vector-effect:none;fill:#000;fill-opacity:1;fill-rule:nonzero;stroke:none;stroke-width:6;stroke-linecap:butt;stroke-linejoin:miter;stroke-miterlimit:4;stroke-dasharray:none;stroke-dashoffset:0;stroke-opacity:1;color-rendering:auto;image-rendering:auto;shape-rendering:auto;text-rendering:auto;enable-background:accumulate" id="path3805-3" d="m 48.791016,4.9941406 c 0,0 -6.718628,8.9372564 -0.38086,22.5136714 C 52.432779,36.124854 62.001735,54.828206 69.783203,70 H 92.369141 C 84.414872,54.057932 70.342476,25.858412 66.726562,18.625 59.971063,5.0060892 48.791016,4.9941406 48.791016,4.9941406 Z M 5,30 0,40 v 28 2 H 25 V 55 L 20,60 10,50 20,40 15,30 Z m 8,44 c -4.639643,0 -8.937991,2.481951 -11.2578125,6.5 -2.3198215,4.018049 -2.3198215,8.981951 0,13 C 4.062009,97.518049 8.360357,100 13,100 h 73.996094 c 4.639643,0 8.937991,-2.481951 11.257812,-6.5 2.319814,-4.018049 2.319814,-8.981951 0,-13 C 95.934085,76.481951 91.635737,74 86.996094,74 Z"/></g></svg>