<svg xmlns="http://www.w3.org/2000/svg" xmlns:svg="http://www.w3.org/2000/svg" id="svg2" width="100" height="100" version="1.1"><metadata id="metadata7"/><g id="layer2" style="display:none;opacity:.1777251"><path style="color:#000;font-style:normal;font-variant:normal;font-weight:400;font-stretch:normal;font-size:medium;line-height:normal;font-family:Sans;-inkscape-font-specification:Sans;text-indent:0;text-align:start;text-decoration:none;text-decoration-line:none;letter-spacing:normal;word-spacing:normal;text-transform:none;writing-mode:lr-tb;direction:ltr;baseline-shift:baseline;text-anchor:start;display:inline;overflow:visible;visibility:visible;fill:#000;fill-opacity:1;stroke:none;stroke-width:6;marker:none;enable-background:accumulate" id="rect2985" d="M 16,6 C 11.619891,6 8,9.61989 8,14 v 70 c 0,4.3801 3.619891,8 8,8 h 70 c 4.380109,0 8,-3.6199 8,-8 V 14 C 94,9.61989 90.380109,6 86,6 Z M 14,24.0625 H 88 V 84 c 0,1.1599 -0.840108,2 -2,2 H 16 c -1.159892,0 -2,-0.8401 -2,-2 z"/></g><g id="layer1" style="display:none;opacity:.49186994"><path style="color:#000;font-style:normal;font-variant:normal;font-weight:400;font-stretch:normal;font-size:medium;line-height:normal;font-family:sans-serif;font-variant-ligatures:normal;font-variant-position:normal;font-variant-caps:normal;font-variant-numeric:normal;font-variant-alternates:normal;font-feature-settings:normal;text-indent:0;text-align:start;text-decoration:none;text-decoration-line:none;text-decoration-style:solid;text-decoration-color:#000;letter-spacing:normal;word-spacing:normal;text-transform:none;writing-mode:lr-tb;direction:ltr;text-orientation:mixed;dominant-baseline:auto;baseline-shift:baseline;text-anchor:start;white-space:normal;shape-padding:0;clip-rule:nonzero;display:inline;overflow:visible;visibility:visible;opacity:1;isolation:auto;mix-blend-mode:normal;color-interpolation:sRGB;color-interpolation-filters:linearRGB;solid-color:#000;solid-opacity:1;vector-effect:none;fill:#000;fill-opacity:1;fill-rule:nonzero;stroke:none;stroke-width:6;stroke-linecap:butt;stroke-linejoin:miter;stroke-miterlimit:4;stroke-dasharray:none;stroke-dashoffset:0;stroke-opacity:1;color-rendering:auto;image-rendering:auto;shape-rendering:auto;text-rendering:auto;enable-background:accumulate" id="path3805" d="m 21,66 c -4.639643,0 -8.937991,2.481951 -11.2578125,6.5 -2.3198215,4.018049 -2.3198215,8.981951 0,13 C 12.062009,89.518049 16.360357,92 21,92 h 60 c 4.639643,0 8.937991,-2.481951 11.257812,-6.5 2.319822,-4.018049 2.319822,-8.981951 0,-13 C 89.937991,68.481951 85.639643,66 81,66 Z"/><path style="fill:#000;fill-opacity:1;fill-rule:evenodd;stroke:none;stroke-width:3;stroke-linecap:butt;stroke-linejoin:miter;stroke-miterlimit:4;stroke-dasharray:none;stroke-opacity:1" id="path4628" d="M 85,60 C 85,60 73.366784,32.079498 67.428299,21.49814 62.554823,12.814449 51,6 51,6 51,6 50.31261,17.182106 52.460462,24.888385 55,34 70,60 70,60 Z"/><path style="fill:#000;fill-opacity:1;fill-rule:evenodd;stroke:none;stroke-width:3;stroke-linecap:butt;stroke-linejoin:miter;stroke-miterlimit:4;stroke-dasharray:none;stroke-opacity:1" id="path4630" d="m 12,60 13,-28 7,-7 7,5 c 0,0 -1.658513,4.844807 -3,7 -1.623984,2.609046 -5.248482,3.081784 -6.516351,5.881239 C 28,46 28,53 33,53 c 3,0 7,-4 7,-4 l -2,11 z"/></g><g id="layer3"><path style="color:#000;font-style:normal;font-variant:normal;font-weight:400;font-stretch:normal;font-size:medium;line-height:normal;font-family:sans-serif;font-variant-ligatures:normal;font-variant-position:normal;font-variant-caps:normal;font-variant-numeric:normal;font-variant-alternates:normal;font-feature-settings:normal;text-indent:0;text-align:start;text-decoration:none;text-decoration-line:none;text-decoration-style:solid;text-decoration-color:#000;letter-spacing:normal;word-spacing:normal;text-transform:none;writing-mode:lr-tb;direction:ltr;text-orientation:mixed;dominant-baseline:auto;baseline-shift:baseline;text-anchor:start;white-space:normal;shape-padding:0;clip-rule:nonzero;display:inline;overflow:visible;visibility:visible;opacity:1;isolation:auto;mix-blend-mode:normal;color-interpolation:sRGB;color-interpolation-filters:linearRGB;solid-color:#000;solid-opacity:1;vector-effect:none;fill:#000;fill-opacity:1;fill-rule:nonzero;stroke:none;stroke-width:6;stroke-linecap:butt;stroke-linejoin:miter;stroke-miterlimit:4;stroke-dasharray:none;stroke-dashoffset:0;stroke-opacity:1;color-rendering:auto;image-rendering:auto;shape-rendering:auto;text-rendering:auto;enable-background:accumulate" id="path3805-3" d="m 13,74 c -4.639643,0 -8.937991,2.481951 -11.2578125,6.5 -2.3198215,4.018049 -2.3198215,8.981951 0,13 C 4.062009,97.518049 8.360357,100 13,100 h 73.99609 c 4.639643,0 8.937991,-2.481951 11.257812,-6.5 2.319818,-4.018049 2.319818,-8.981951 0,-13 C 95.934081,76.481951 91.635733,74 86.99609,74 Z"/><path style="fill:#000;fill-opacity:1;stroke:none;stroke-width:1px;stroke-linecap:butt;stroke-linejoin:miter;stroke-opacity:1" id="path3778" d="M 0,68 V 40 L 5,30 h 10 l 5,10 -10,10 10,10 5,-5 V 70 H 0 Z"/><path style="fill:#000;fill-opacity:1;stroke:none;stroke-width:1px;stroke-linecap:butt;stroke-linejoin:miter;stroke-opacity:1" id="path4715" d="m 48.791016,4.9941406 c 0,0 -6.718628,8.9372564 -0.38086,22.5136714 C 52.432779,36.124854 62.001735,54.828206 69.783203,70 H 92.369141 C 84.414872,54.057932 70.342476,25.858412 66.726562,18.625 59.971063,5.0060892 48.791016,4.9941406 48.791016,4.9941406 Z M 78.517578,87.091797 C 78.916739,87.879897 79.720921,89.440254 80,90 l 5.832031,-2.908203 z"/></g></svg>