<svg xmlns="http://www.w3.org/2000/svg" xmlns:svg="http://www.w3.org/2000/svg" style="enable-background:new 0 0 1000 1000" id="Layer_1" x="0" y="0" version="1.1" viewBox="0 0 1000 1000" xml:space="preserve"><metadata id="metadata4279"/><defs id="defs4277"><filter id="filter1020" width="1.005" height="1.005" x="-.002" y="-.002" style="color-interpolation-filters:sRGB"><feGaussianBlur id="feGaussianBlur1022" stdDeviation="1"/></filter></defs><style id="style4255" type="text/css"/><g id="XMLID_1_"><path id="XMLID_84_" d="M 500.0332,-0.2578125 C 223.79938,-0.2578125 0,223.53985 0,499.66211 c 0,276.23383 223.79938,500.0332 500.0332,500.0332 276.12226,0 499.91966,-223.79961 500.0313,-499.92187 0,-276.23383 -223.90904,-500.0312525 -500.0313,-500.0312525 z M 320.41992,292.35938 c 1.69439,-0.061 3.45153,0.32373 5.125,1.24414 l 226.36524,123.83593 c 3.1238,1.78504 5.13086,5.01955 5.13086,8.70117 v 72.74024 c 0,3.68163 -2.00706,6.91809 -5.13086,8.70312 L 325.99219,631.19727 c -6.69388,3.68163 -14.72656,-1.11674 -14.72657,-8.70313 v -77.98242 c 0,-3.57007 2.00706,-6.91809 5.13086,-8.70313 L 450.7207,462.17578 316.39648,388.32031 c -3.1238,-1.67347 -5.13086,-5.01978 -5.13086,-8.58984 l -0.44726,-77.31445 c 0,-5.6898 4.5184,-9.87361 9.60156,-10.05664 z m 212.9707,366.95117 h 262.17579 c 3.4585,0 6.36003,1.00503 8.81445,3.23633 2.45442,2.11972 3.6814,5.24367 3.79297,9.14843 v 51.43164 c 0,1.33878 -0.33476,2.89904 -0.89258,4.46094 -0.55782,1.5619 -1.45076,3.01279 -2.56641,4.35156 -1.22721,1.33878 -2.45372,2.56647 -4.01562,3.45899 -1.5619,1.00408 -3.23622,1.44922 -5.13281,1.44922 H 533.39062 c -8.36734,0 -12.49609,-4.46109 -12.49609,-13.60938 v -51.43164 c 0,-8.36734 4.12875,-12.49609 12.49609,-12.49609 z" style="display:inline;fill:#000;fill-opacity:1;stroke-width:1.11564553;filter:url(#filter1020);stroke:none"/></g></svg>