<svg xmlns="http://www.w3.org/2000/svg" xmlns:svg="http://www.w3.org/2000/svg" id="Layer_1" x="0" y="0" version="1.1" viewBox="0 0 1000 1000" xml:space="preserve" style="enable-background:new 0 0 1000 1000"><metadata id="metadata4279"/><style id="style4255" type="text/css">.st2{opacity:.2}.st3{fill:#fff}.st4{fill:#3db54a}.st5{opacity:.5}.st6{fill:#019547}.st7{opacity:.15}.st8{fill:#010101}.st9{opacity:.05}</style><g id="XMLID_1_"><g id="g4821" transform="matrix(1.1156455,0,0,1.1156455,-6.6938727,-65.746756)"><g id="XMLID_165_" class="st2" style="opacity:.2"><path id="XMLID_55_" d="m 965.2,112.3 c 0,0 -0.6,-1 -1.7,-2.9 -0.6,-0.9 -1.3,-2.1 -2.2,-3.3 -0.9,-1.3 -1.8,-2.7 -3.1,-4.3 -2.4,-3.1 -5.7,-6.7 -9.8,-10.2 -4.1,-3.5 -9.1,-7.1 -15,-10.1 -5.9,-3 -12.6,-5.6 -19.9,-7.4 -7.3,-1.8 -15.3,-3.1 -23.6,-3.5 -4.1,-0.2 -8.4,-0.2 -12.5,0 -0.5,0 -1.1,0.1 -1.3,0.1 l -1.7,0.2 -3.4,0.4 c -2.2,0.3 -4.5,0.5 -6.8,0.8 -4.5,0.5 -9.1,1.1 -13.7,1.6 -4.6,0.5 -9.2,0.9 -13.8,1.4 -9.2,0.9 -18.4,2 -27.5,2.8 -9.1,0.8 -18,1.6 -26.7,2.4 -8.7,0.7 -17,1.3 -25,1.9 -7.9,0.6 -15.5,1 -22.4,1.5 -6.9,0.5 -13.3,0.7 -19,1 -5.6,0.3 -10.6,0.4 -14.6,0.6 -4.1,0.2 -7.3,0.2 -9.4,0.2 -2.2,0 -3.3,0.1 -3.3,0.1 l -0.1,-0.7 c 0,0 73.6,-8.2 147.2,-16.5 9.2,-1 18.4,-2 27.5,-3 4.5,-0.5 9,-1 13.5,-1.4 4.5,-0.2 8.9,-0.1 13.3,0.3 17.4,1.3 33.3,6.2 45.3,13.4 6,3.6 11,7.6 15,11.7 4,4.1 7,8 9.2,11.5 1.2,1.7 2,3.3 2.8,4.7 0.8,1.4 1.4,2.6 1.8,3.6 0.9,2 1.4,3 1.4,3 l -0.5,0.1 z" class="st3" style="fill:#fff"/></g><g id="shape_1_"><path id="XMLID_84_" d="m 454.2,955 0,0 C 206.6,955 6,754.4 6,506.8 l 0,0 C 6,259.3 206.6,58.7 454.2,58.7 l 0,0 c 247.5,0 448.2,200.6 448.2,448.2 l 0,0 C 902.3,754.4 701.7,955 454.2,955 Z" class="st4" style="fill:#3db54a"/><g id="XMLID_35_" class="st5" style="opacity:.5"><path id="XMLID_56_" d="m 454.2,128.2 c 101.1,0 196.2,39.4 267.7,110.9 71.5,71.5 110.9,166.6 110.9,267.7 0,101.1 -39.4,196.2 -110.9,267.7 C 650.4,846 555.3,885.4 454.2,885.4 353.1,885.4 258,846 186.5,774.5 115,703 75.5,608 75.5,506.8 75.5,405.7 114.9,310.6 186.4,239.1 257.9,167.6 353,128.2 454.2,128.2 m 0,-69.5 C 206.6,58.7 6,259.3 6,506.8 l 0,0 C 6,754.4 206.6,955 454.2,955 701.8,955 902.4,754.4 902.4,506.8 l 0,0 C 902.3,259.3 701.7,58.7 454.2,58.7 l 0,0 z" class="st6" style="fill:#019547"/></g></g><g id="shadow_1_" class="st7" style="opacity:.15"><path id="XMLID_54_" d="m 454.2,885.5 0,0 C 218.4,885.5 25.3,703.4 7.5,472.1 6.6,483.6 6,495.1 6,506.8 l 0,0 C 6,754.4 206.6,955 454.2,955 l 0,0 c 247.5,0 448.2,-200.6 448.2,-448.2 l 0,0 c 0,-11.7 -0.6,-23.3 -1.5,-34.8 C 883.1,703.3 690,885.5 454.2,885.5 Z" class="st8" style="fill:#010101"/></g><g id="texture_1_" class="st9" style="opacity:.05"><path id="XMLID_87_" d="m 902.3,506.8 c 0,-72.3 -17.1,-140.5 -47.5,-201 C 412,27.5 520.9,882.7 15.7,600 58.6,802.8 238.6,955 454.1,955 701.7,955 902.3,754.4 902.3,506.8 l 0,0 z" class="st8" style="fill:#010101"/></g><g id="symbol_1_"><path id="XMLID_113_" d="m 505.3,506.1 0,-65.2 c 0,-3.3 -1.8,-6.2 -4.6,-7.8 l -202.9,-111 c -6,-3.3 -13.2,1.1 -13.2,7.9 l 0.4,69.3 c 0,3.2 1.8,6.2 4.6,7.7 l 120.4,66.2 -120.4,66 c -2.8,1.6 -4.6,4.6 -4.6,7.8 l 0,69.9 c 0,6.8 7.2,11.1 13.2,7.8 L 500.7,513.9 c 2.8,-1.6 4.6,-4.5 4.6,-7.8 z" class="st3" style="fill:#fff"/><path id="XMLID_112_" d="m 727,652.8 c -2.2,-2 -4.8,-2.9 -7.9,-2.9 l -235,0 c -7.5,0 -11.2,3.7 -11.2,11.2 l 0,46.1 c 0,8.2 3.7,12.2 11.2,12.2 l 235,0 c 1.7,0 3.2,-0.4 4.6,-1.3 1.4,-0.8 2.5,-1.9 3.6,-3.1 1,-1.2 1.8,-2.5 2.3,-3.9 0.5,-1.4 0.8,-2.8 0.8,-4 l 0,-46.1 c -0.1,-3.5 -1.2,-6.3 -3.4,-8.2 z" class="st3" style="fill:#fff"/></g><g id="highlight_1_" class="st5" style="opacity:.5"><path id="XMLID_96_" d="m 68.2,522.4 c 0,-207.6 151,-390.6 412.9,-390.6 110.1,0 229,64.6 301.8,164.5 C 723.6,180.1 608.9,103.4 463.2,103.4 l -3.5,0 C 243.3,103.4 68,278.8 68,495.1 l 0,23.3 c 0,5.3 0.1,10.6 0.3,15.8 l 0,-11.8 z" class="st3" style="fill:#fff"/></g></g></g></svg>